<svg width="80" 
height="80"
 viewBox="0 0 43 62"
  fill="none" 
  xmlns="http://www.w3.org/2000/svg">

<path d="M40.1023 38.8887V38.2361L39.7833 37.6667C35.792 30.5433 33.7942 26.9778 32.7947 25.2017C32.2985 24.32 32.0387 23.8621 31.9022 23.6281L31.8966 23.6184C31.8494 23.5376 31.7607 23.3853 31.6685 23.2561C31.6506 23.2311 31.6022 23.1634 31.53 23.0786C31.4039 22.8718 31.1773 22.4909 30.7794 21.8087C29.7882 20.1096 27.7976 16.6505 23.8053 9.65022L21.6337 5.84236L19.462 9.65022L12.4757 21.9002L11.6025 23.4315L11.4933 23.6229L11.4796 23.6468L11.4779 23.6498L11.4776 23.6503L11.4776 23.6505L11.4775 23.6505L11.4775 23.6506L11.4774 23.6507L11.4773 23.651L11.4772 23.651L11.4759 23.6533C11.4725 23.6618 11.4691 23.6702 11.4657 23.6787C11.4691 23.6702 11.4725 23.6618 11.4759 23.6534L11.4757 23.6536L11.4621 23.6776L11.3529 23.869L10.4797 25.4002L3.49338 37.6502L3.16504 38.2259V38.8887C3.16504 49.714 11.2232 58.8887 21.6337 58.8887C32.0441 58.8887 40.1023 49.714 40.1023 38.8887ZM32.118 24.7012C32.118 24.6608 32.1199 24.6958 32.117 24.7715C32.1176 24.7501 32.1178 24.7328 32.1179 24.7222L32.118 24.7068L32.118 24.7012ZM31.6338 23.2454C31.6424 23.2578 31.6472 23.2651 31.6474 23.2657C31.6477 23.2663 31.6434 23.2601 31.6338 23.2454Z" fill="#F8B78F" stroke="#203543" stroke-width="5"/>
</svg>
