<svg width="40" height="40" viewBox="0 0 21 22" fill="none" xmlns="http://www.w3.org/2000/svg">
<path fill-rule="evenodd" clip-rule="evenodd" d="M19.1669 10.24C18.7264 10.24 18.2859 10.4057 17.9541 10.7382L15.9412 12.7563C15.7183 12.4037 15.3713 12.1288 14.9428 12.0138L10.192 10.7382C9.81338 10.6365 9.42186 10.6174 9.04217 10.675C8.66248 10.7327 8.29494 10.8671 7.96336 11.0765L4.99763 12.951L4.75774 12.5334C4.45899 12.015 3.7729 11.8313 3.25545 12.1306L0.999989 13.4344C0.482535 13.7338 0.299197 14.4212 0.597947 14.9397L3.95902 20.7714C4.25777 21.2898 4.94252 21.4749 5.45998 21.1755L7.71543 19.8704C8.23289 19.571 8.41757 18.8836 8.11882 18.3651L8.07456 18.2872L9.35975 17.4171L14.0878 18.349C14.7357 18.4766 15.3149 18.2955 15.7763 17.8226C17.3013 16.2598 18.8282 14.704 20.377 13.1726L20.3812 13.1699C21.0447 12.505 21.0447 11.403 20.3812 10.7381C20.0494 10.4057 19.6075 10.24 19.1669 10.24ZM19.1669 11.6029C19.2525 11.6029 19.3381 11.6388 19.4095 11.7103C19.5523 11.8534 19.5523 12.0547 19.4095 12.1978C17.8522 13.7376 16.3209 15.2992 14.7954 16.8625C14.7674 16.8913 14.3922 17.0072 14.3531 16.9995L9.34504 16.0139C9.25619 15.9963 9.16473 15.9965 9.07595 16.0145C8.98716 16.0324 8.90281 16.0678 8.82775 16.1186L7.3871 17.0948L5.68512 14.1421L8.69508 12.2407C9.03524 12.0258 9.44845 11.9619 9.83688 12.0662L14.5877 13.3418C14.7827 13.3942 14.8825 13.568 14.8302 13.7634C14.778 13.9588 14.6045 14.0588 14.4094 14.0065L11.4276 13.2062C11.2519 13.159 11.0646 13.1837 10.907 13.2749C10.7495 13.366 10.6345 13.5162 10.5874 13.6923C10.5403 13.8684 10.565 14.056 10.6559 14.2139C10.7469 14.3717 10.8967 14.487 11.0725 14.5342L14.0543 15.3345C14.7239 15.5142 15.4175 15.2597 15.8327 14.749C15.899 14.7186 15.9601 14.6778 16.0136 14.6282L18.9244 11.7103C18.9958 11.6388 19.0814 11.6029 19.1669 11.6029ZM3.70573 13.4573L4.03809 14.0347C4.04982 14.1322 4.08226 14.226 4.13324 14.3099C4.17725 14.3768 4.23258 14.4354 4.29674 14.4832L6.79342 18.8163L5.01103 19.8475L1.92335 14.4885L3.70573 13.4573Z" fill="#203543"/>
<path fill-rule="evenodd" clip-rule="evenodd" d="M13.3896 6.1969C13.2076 6.1969 13.0331 6.26932 12.9044 6.39825C12.7757 6.52718 12.7034 6.70206 12.7034 6.8844C12.7034 7.06674 12.7757 7.24159 12.9044 7.37053C13.0331 7.49946 13.2076 7.5719 13.3896 7.5719H14.7619C14.9439 7.5719 15.1184 7.49946 15.2471 7.37053C15.3758 7.24159 15.4481 7.06674 15.4481 6.8844C15.4481 6.70206 15.3758 6.52718 15.2471 6.39825C15.1184 6.26932 14.9439 6.1969 14.7619 6.1969H13.3896Z" fill="#203543"/>
<path fill-rule="evenodd" clip-rule="evenodd" d="M13.3896 3.4469C13.2076 3.4469 13.0331 3.51932 12.9044 3.64825C12.7757 3.77718 12.7034 3.95206 12.7034 4.1344C12.7034 4.31674 12.7757 4.49159 12.9044 4.62053C13.0331 4.74946 13.2076 4.8219 13.3896 4.8219H14.7619C14.9439 4.8219 15.1184 4.74946 15.2471 4.62053C15.3758 4.49159 15.4481 4.31674 15.4481 4.1344C15.4481 3.95206 15.3758 3.77718 15.2471 3.64825C15.1184 3.51932 14.9439 3.4469 14.7619 3.4469H13.3896Z" fill="#203543"/>
<path fill-rule="evenodd" clip-rule="evenodd" d="M14.0757 0.696899C11.4312 0.696899 9.27268 2.85968 9.27268 5.5094C9.27268 8.15913 11.4312 10.3219 14.0757 10.3219C16.7203 10.3219 18.8788 8.15913 18.8788 5.5094C18.8788 2.85968 16.7203 0.696899 14.0757 0.696899ZM14.0757 2.0719C15.9786 2.0719 17.5065 3.60278 17.5065 5.5094C17.5065 7.41602 15.9786 8.9469 14.0757 8.9469C12.1729 8.9469 10.645 7.41602 10.645 5.5094C10.645 3.60278 12.1729 2.0719 14.0757 2.0719Z" fill="#203543"/>
</svg>
