<svg width="50" 
height="50" 
viewBox="0 0 23 21"  
xmlns="http://www.w3.org/2000/svg">
<path fill-rule="evenodd" 
clip-rule="evenodd" 
d="M11.5 1.90909C6.10428 1.90909 1.94731 6.31518 1.91686 12.0429C1.90651 13.9911 2.30035 15.96 3.84055 18.1364H5.05147C3.91737 16.8768 3.14264 15.2828 2.88817 13.5214C2.87764 13.4591 2.87347 13.397 2.87519 13.336C2.887 12.8781 3.22929 12.4824 3.69972 12.4163L3.70421 12.4158C8.09366 11.5196 11.1734 8.45739 12.5075 4.47087C12.655 4.03027 13.0937 3.76805 13.5394 3.82587C13.6698 3.80895 13.8059 3.81866 13.94 3.85904C17.5244 4.93859 20.125 8.29149 20.125 12.2477C20.125 14.5114 19.2723 16.5795 17.8707 18.1364H19.1371C20.3228 16.3014 21.0932 13.9131 21.0832 12.0429C21.0527 6.31518 16.8958 1.90909 11.5 1.90909ZM14.0179 5.91259C12.4498 9.82227 9.31383 12.9053 4.95803 14.0804C5.74953 16.978 8.37039 19.0909 11.461 19.0909C15.1732 19.0909 18.2083 16.0414 18.2083 12.2477C18.2083 9.37984 16.4709 6.93235 14.0179 5.91259ZM3.35434 20.0455H7.52156C8.70224 20.6555 10.0407 21 11.461 21C12.8903 21 14.2369 20.6511 15.4231 20.0338C15.4719 20.0414 15.5219 20.0455 15.5729 20.0455H19.6457C19.9561 20.0455 20.2472 19.8958 20.4269 19.6438C21.9632 17.4902 23.013 14.4987 22.9999 12.0328C22.9644 5.37837 18.0704 0 11.5 0C4.92967 0 0.0356026 5.37837 0.000221882 12.0328C-0.012621 14.4483 0.52835 16.9572 2.59056 19.6675C2.77174 19.9056 3.05439 20.0455 3.35434 20.0455ZM9.58351 14.318C8.97592 14.3184 8.50452 14.9096 8.65376 15.5042C9.07448 17.1805 10.5417 18.1364 11.5002 18.1364C12.3835 18.1364 13.8503 17.1705 14.3465 15.5018C14.4957 14.9073 14.0236 14.3184 13.4168 14.318H9.58351ZM14.375 11.9318C15.1689 11.9318 15.8125 11.2907 15.8125 10.5C15.8125 9.70925 15.1689 9.06818 14.375 9.06818C13.5811 9.06818 12.9375 9.70925 12.9375 10.5C12.9375 11.2907 13.5811 11.9318 14.375 11.9318Z"
 fill="#F8B78F"/>
</svg>
